<svg id="Layer_1" data-name="Layer 1" xmlns="http://www.w3.org/2000/svg" viewBox="0 0 348.2 356.61"><defs><style>.cls-1{fill:#d4ecff;}.cls-2{fill:#173d7a;}.cls-3{fill:#396caa;}.cls-4{fill:#95d359;}.cls-5{fill:#c13d1a;}.cls-6{fill:#db5126;}.cls-7{fill:#ef602e;}.cls-8{fill:#5793ce;}.cls-9{fill:#274f89;}.cls-10{fill:#fff;}.cls-11{fill:#bb2028;}.cls-12{fill:#e1272a;}.cls-13{fill:#ffc2b0;}.cls-14{fill:#ea9c92;}</style></defs><title>hero</title><polygon class="cls-1" points="109.58 139.28 124.19 130.85 109.58 122.42 94.98 130.85 94.98 130.85 80.37 139.28 94.98 147.72 94.98 147.72 109.58 156.15 124.19 147.72 109.58 139.28 109.58 139.28"/><polygon class="cls-2" points="109.58 118.28 109.58 56.44 124.19 48 124.19 109.85 109.58 118.28"/><polygon class="cls-3" points="109.58 56.44 94.98 48 94.98 109.85 109.58 118.28 109.58 56.44"/><polygon class="cls-1" points="124.19 48 109.58 39.57 94.98 48 109.58 56.44 124.19 48"/><polygon class="cls-4" points="124.19 121.09 109.58 112.66 109.58 118.28 124.19 126.71 124.19 121.09"/><polygon class="cls-5" points="94.98 126.71 94.98 81.74 109.58 73.3 109.58 118.28 94.98 126.71"/><polygon class="cls-6" points="94.98 81.74 80.37 73.3 80.37 118.28 94.98 126.71 94.98 81.74"/><polygon class="cls-7" points="109.58 73.3 94.98 64.87 80.37 73.3 94.98 81.74 109.58 73.3"/><polygon class="cls-3" points="94.98 126.71 94.98 81.74 109.58 73.3 109.58 118.28 94.98 126.71"/><polygon class="cls-8" points="94.98 81.74 80.37 73.3 80.37 118.28 94.98 126.71 94.98 81.74"/><polygon class="cls-1" points="109.58 73.3 94.98 64.87 80.37 73.3 94.98 81.74 109.58 73.3"/><polygon class="cls-2" points="109.58 135.15 109.58 109.85 124.19 101.41 124.19 126.71 109.58 135.15"/><polygon class="cls-3" points="109.58 109.85 94.98 101.41 94.98 126.71 109.58 135.15 109.58 109.85"/><polygon class="cls-1" points="124.19 101.41 109.58 92.98 94.98 101.41 109.58 109.85 124.19 101.41"/><path class="cls-1" d="M348.2,258l-66.15,41a15.7,15.7,0,0,0-5.11,21.61l22.21,36H348.2Z"/><rect class="cls-8" x="297.67" y="165.24" width="1.75" height="5.08" transform="translate(386.97 -163.07) rotate(75.63)"/><rect class="cls-8" x="295.16" y="167.69" width="1.75" height="5.08" transform="translate(387.44 -158.8) rotate(75.62)"/><rect class="cls-8" x="292.65" y="170.14" width="1.75" height="5.08" transform="translate(387.92 -154.52) rotate(75.62)"/><rect class="cls-8" x="290.14" y="172.59" width="1.75" height="5.08" transform="translate(388.43 -150.24) rotate(75.63)"/><path class="cls-1" d="M170.94,292.59,60.63,228.9c-3.12-1.8-2.73-5,.87-7l75.11-43.35c3.61-2.08,9.06-2.31,12.18-.51L259.1,241.7c3.12,1.8,2.73,5-.88,7l-75.11,43.35C179.51,294.16,174.06,294.39,170.94,292.59Z"/><path class="cls-2" d="M263.18,116.42,151.05,51.74a4.27,4.27,0,0,0-3.84-.52h0l-.18.08,0,0L143.34,53l4,2c0,.08,0,.15,0,.22l0,92.1c0,4.61,2.86,10,6.38,12l109.14,63,.62,5.14,4-1.91c1.31-.77,2.15-2.51,2.14-5l0-92.1C269.55,123.83,266.7,118.45,263.18,116.42Z"/><path class="cls-3" d="M263.18,116.42,151.05,51.74a4.27,4.27,0,0,0-3.84-.52h0l-.18.08,0,0L143.34,53l4,2c0,.08,0,.15,0,.22l0,60.7,51,40.32,69.29-34.87A12.64,12.64,0,0,0,263.18,116.42Z"/><path class="cls-9" d="M265.05,117.87l-11,4.62,8.3,6.39,6.93-2.95A16.09,16.09,0,0,0,265.05,117.87Z"/><path class="cls-1" d="M259.53,227,147.4,162.26c-3.52-2-6.37-7.41-6.37-12l0-92.09c0-4.61,2.85-6.7,6.37-4.68l112.13,64.69c3.52,2,6.37,7.41,6.37,12l0,92.1C265.9,226.88,263.05,229,259.53,227Z"/><path class="cls-10" d="M255.8,220.1,151.07,159.71c-3.21-1.85-5.82-6.78-5.83-11l0-84.28c0-4.22,2.61-6.13,5.83-4.28l104.72,60.39c3.22,1.85,5.83,6.78,5.83,11l0,84.28C261.62,220,259,222,255.8,220.1Z"/><path class="cls-10" d="M255.8,220.1,151.07,159.71c-3.21-1.85-5.82-6.78-5.83-11l0-84.28c0-4.22,2.61-6.13,5.83-4.28l104.72,60.39c3.22,1.85,5.83,6.78,5.83,11l0,84.28C261.62,220,259,222,255.8,220.1Z"/><path class="cls-2" d="M261.2,229.81l-15.08-2-97.33-56.2c-3.12-1.8-8.57-1.58-12.18.5l-69,39.81-9.12-1.2v5.17h0a3.55,3.55,0,0,0,2.1,3.2l110.31,63.68c3.12,1.81,8.57,1.58,12.17-.5l75.11-43.35c2-1.17,3-2.68,3-4.1h0Z"/><path class="cls-3" d="M188.07,194.3l-6.92-4h-76L67.64,211.93l-9.12-1.2v5.17h0a3.55,3.55,0,0,0,2.1,3.2l110.31,63.68a11.3,11.3,0,0,0,6.28,1.18Z"/><path class="cls-8" d="M62.57,211.26l-4-.53v5.17h0a3.55,3.55,0,0,0,2.1,3.2l1.94,1.12Z"/><path class="cls-9" d="M172.05,283.3a14.12,14.12,0,0,0,10.34-.64V271.12H172.05Z"/><path class="cls-1" d="M170.94,277.62,60.63,213.93c-3.12-1.8-2.73-5,.87-7l75.11-43.35c3.61-2.08,9.06-2.31,12.18-.51L259.1,226.73c3.12,1.8,2.73,5-.88,7l-75.11,43.35C179.51,279.19,174.06,279.42,170.94,277.62Z"/><path class="cls-10" d="M258.22,231.87l-75.11,43.35c-3.6,2.08-9.05,2.31-12.17.51L60.63,212a4.1,4.1,0,0,1-1.94-2.12c-.49,1.47.13,3,1.94,4l110.31,63.69c3.12,1.8,8.57,1.57,12.17-.51l75.11-43.35c2.43-1.4,3.39-3.28,2.82-4.91A5.89,5.89,0,0,1,258.22,231.87Z"/><path class="cls-2" d="M107.54,192.85l-5-2.89c-.4-.23-.35-.63.11-.9l5.9-3.4a1.73,1.73,0,0,1,1.56-.07l5,2.89c.4.23.35.63-.11.9l-5.89,3.4A1.75,1.75,0,0,1,107.54,192.85Z"/><path class="cls-2" d="M115.25,197.3l-5-2.89c-.4-.23-.35-.63.11-.9l5.89-3.4a1.75,1.75,0,0,1,1.57-.07l5,2.89c.4.23.35.63-.11.9l-5.9,3.4A1.73,1.73,0,0,1,115.25,197.3Z"/><path class="cls-2" d="M123,201.75l-5-2.89c-.4-.23-.35-.63.11-.9l5.89-3.4a1.73,1.73,0,0,1,1.56-.07l5,2.89c.4.23.35.63-.12.9l-5.89,3.4A1.73,1.73,0,0,1,123,201.75Z"/><path class="cls-2" d="M133.62,198.07l-5-2.88c-.4-.23-.35-.64.11-.9l4.95-2.86a1.69,1.69,0,0,1,1.56-.06l5,2.88c.4.23.35.63-.11.9L135.18,198A1.76,1.76,0,0,1,133.62,198.07Z"/><path class="cls-2" d="M141.33,202.52l-5-2.88c-.41-.23-.35-.64.11-.9l4.94-2.86a1.72,1.72,0,0,1,1.57-.06l5,2.88c.4.23.35.63-.11.9l-5,2.86A1.76,1.76,0,0,1,141.33,202.52Z"/><path class="cls-2" d="M149,207l-5-2.88c-.4-.23-.35-.64.12-.9l4.94-2.86a1.69,1.69,0,0,1,1.56-.06l5,2.88c.4.23.35.63-.12.9l-4.94,2.86A1.78,1.78,0,0,1,149,207Z"/><path class="cls-2" d="M156.74,211.42l-5-2.88c-.4-.23-.35-.64.11-.9l4.95-2.86a1.69,1.69,0,0,1,1.56-.06l5,2.88c.4.23.35.63-.11.9l-4.94,2.86A1.78,1.78,0,0,1,156.74,211.42Z"/><path class="cls-2" d="M164.45,215.87l-5-2.88c-.4-.23-.35-.64.11-.9l5-2.86a1.69,1.69,0,0,1,1.56-.06l5,2.88c.4.23.35.63-.11.9l-5,2.86A1.76,1.76,0,0,1,164.45,215.87Z"/><path class="cls-2" d="M172.16,220.32l-5-2.88c-.4-.23-.35-.64.11-.9l4.94-2.86a1.75,1.75,0,0,1,1.57-.06l5,2.88c.4.23.35.63-.11.9l-4.95,2.86A1.76,1.76,0,0,1,172.16,220.32Z"/><path class="cls-2" d="M179.87,224.77l-5-2.88c-.4-.23-.35-.64.12-.9l4.94-2.86a1.74,1.74,0,0,1,1.57-.06l5,2.88c.4.23.35.63-.12.9l-4.94,2.86A1.76,1.76,0,0,1,179.87,224.77Z"/><path class="cls-2" d="M187.57,229.22l-5-2.88c-.4-.23-.35-.64.11-.9l4.95-2.86a1.72,1.72,0,0,1,1.56-.06l5,2.88c.41.23.35.63-.11.9l-4.94,2.86A1.78,1.78,0,0,1,187.57,229.22Z"/><path class="cls-2" d="M195.28,233.67l-5-2.88c-.4-.23-.35-.64.11-.9l4.95-2.86a1.72,1.72,0,0,1,1.56-.06l5,2.88c.4.23.35.63-.11.9l-4.95,2.86A1.76,1.76,0,0,1,195.28,233.67Z"/><path class="cls-2" d="M203,238.12l-5-2.88c-.4-.23-.35-.64.11-.9l4.95-2.86a1.72,1.72,0,0,1,1.56-.06l5,2.88c.4.23.35.63-.11.9l-4.95,2.86A1.76,1.76,0,0,1,203,238.12Z"/><path class="cls-3" d="M145,196l-5-2.88c-.4-.23-.35-.63.12-.9l4.94-2.86a1.78,1.78,0,0,1,1.57-.06l5,2.88c.4.23.35.64-.12.9l-4.94,2.86A1.72,1.72,0,0,1,145,196Z"/><path class="cls-3" d="M137.15,191.45l-5-2.88c-.4-.24-.35-.64.11-.91l4.95-2.85a1.73,1.73,0,0,1,1.56-.07l5,2.88c.4.24.35.64-.11.91l-4.94,2.85A1.75,1.75,0,0,1,137.15,191.45Z"/><path class="cls-2" d="M129.32,186.92l-10.75-6.2c-.4-.23-.35-.64.11-.91l4.95-2.85a1.73,1.73,0,0,1,1.56-.07l10.75,6.21c.4.23.35.64-.11.9l-5,2.86A1.72,1.72,0,0,1,129.32,186.92Z"/><path class="cls-2" d="M134.79,181.42l-8.72-5c-.4-.23-.35-.63.11-.9l4.95-2.85a1.73,1.73,0,0,1,1.56-.07l8.73,5c.4.23.35.63-.12.9l-4.94,2.86A1.78,1.78,0,0,1,134.79,181.42Z"/><path class="cls-3" d="M152.68,200.41l-5-2.88c-.4-.23-.35-.63.11-.9l4.95-2.86a1.76,1.76,0,0,1,1.56-.06l5,2.88c.41.23.36.64-.11.9l-4.94,2.86A1.75,1.75,0,0,1,152.68,200.41Z"/><path class="cls-2" d="M160.39,204.86l-5-2.88c-.4-.23-.35-.63.11-.9l5-2.86a1.76,1.76,0,0,1,1.56-.06l5,2.88c.4.23.35.64-.11.9l-5,2.86A1.69,1.69,0,0,1,160.39,204.86Z"/><path class="cls-2" d="M168.1,209.31l-5-2.88c-.4-.23-.35-.63.11-.9l4.95-2.86a1.76,1.76,0,0,1,1.56-.06l5,2.88c.4.23.35.64-.11.9l-5,2.86A1.69,1.69,0,0,1,168.1,209.31Z"/><path class="cls-2" d="M175.81,213.76l-5-2.88c-.4-.23-.35-.63.11-.9l4.94-2.86a1.78,1.78,0,0,1,1.57-.06l5,2.88c.4.23.35.64-.11.9l-4.95,2.86A1.69,1.69,0,0,1,175.81,213.76Z"/><path class="cls-2" d="M183.51,218.21l-5-2.88c-.4-.23-.35-.63.12-.9l4.94-2.86a1.76,1.76,0,0,1,1.56-.06l5,2.88c.4.23.35.64-.12.9l-4.94,2.86A1.71,1.71,0,0,1,183.51,218.21Z"/><path class="cls-2" d="M191.22,222.66l-5-2.88c-.4-.23-.35-.63.11-.9l4.95-2.86a1.76,1.76,0,0,1,1.56-.06l5,2.88c.4.23.35.64-.11.9l-4.94,2.86A1.72,1.72,0,0,1,191.22,222.66Z"/><path class="cls-2" d="M198.93,227.11l-5-2.88c-.4-.23-.35-.63.11-.9l4.95-2.86a1.76,1.76,0,0,1,1.56-.06l5,2.88c.4.23.35.64-.11.9l-4.95,2.86A1.69,1.69,0,0,1,198.93,227.11Z"/><path class="cls-2" d="M206.64,231.56l-5-2.88c-.4-.23-.35-.63.11-.9l4.94-2.86a1.78,1.78,0,0,1,1.57-.06l5,2.88c.4.23.35.64-.11.9l-5,2.86A1.69,1.69,0,0,1,206.64,231.56Z"/><path class="cls-2" d="M214.35,236l-5-2.88c-.4-.23-.35-.63.12-.9l4.94-2.86a1.78,1.78,0,0,1,1.57-.06l5,2.88c.4.23.35.64-.12.9L215.91,236A1.69,1.69,0,0,1,214.35,236Z"/><path class="cls-2" d="M228.05,243.93l-10.89-6.29c-.4-.23-.35-.64.11-.9l4.95-2.86a1.69,1.69,0,0,1,1.56-.06l10.89,6.28c.4.23.35.64-.11.91l-4.95,2.85A1.73,1.73,0,0,1,228.05,243.93Z"/><path class="cls-2" d="M243.05,235.26,233.86,230c-.4-.23-.35-.63.11-.9l4.95-2.85a1.73,1.73,0,0,1,1.56-.07l9.2,5.31c.4.23.35.63-.12.9l-4.94,2.86A1.78,1.78,0,0,1,243.05,235.26Z"/><path class="cls-2" d="M166.18,199.54l-5-2.88c-.4-.23-.35-.63.11-.9l4.95-2.86a1.76,1.76,0,0,1,1.56-.06l5,2.88c.4.23.35.64-.11.9l-4.94,2.86A1.75,1.75,0,0,1,166.18,199.54Z"/><path class="cls-2" d="M158.28,195l-5-2.88c-.4-.23-.35-.64.11-.9l4.95-2.86a1.76,1.76,0,0,1,1.56-.06l5,2.88c.4.23.35.63-.11.9l-4.94,2.86A1.78,1.78,0,0,1,158.28,195Z"/><path class="cls-3" d="M150.38,190.42l-5-2.88c-.4-.23-.35-.64.11-.9l4.95-2.86a1.72,1.72,0,0,1,1.56-.06l5,2.88c.4.23.35.63-.11.9L152,190.36A1.78,1.78,0,0,1,150.38,190.42Z"/><path class="cls-2" d="M142.48,185.86l-5-2.88c-.4-.23-.35-.64.11-.9l5-2.86a1.69,1.69,0,0,1,1.56-.06l5,2.88c.4.23.35.63-.11.9l-4.94,2.86A1.78,1.78,0,0,1,142.48,185.86Z"/><path class="cls-2" d="M173.89,204l-5-2.88c-.4-.23-.35-.63.11-.9l5-2.86a1.76,1.76,0,0,1,1.56-.06l5,2.88c.4.23.35.64-.11.9l-5,2.86A1.72,1.72,0,0,1,173.89,204Z"/><path class="cls-2" d="M181.6,208.44l-5-2.88c-.4-.23-.35-.63.11-.9l4.94-2.86a1.78,1.78,0,0,1,1.57-.06l5,2.88c.4.23.35.64-.11.9l-5,2.86A1.72,1.72,0,0,1,181.6,208.44Z"/><path class="cls-2" d="M189.3,212.89l-5-2.88c-.4-.23-.35-.63.12-.9l4.94-2.86a1.76,1.76,0,0,1,1.56-.06l5,2.88c.4.23.35.64-.12.9l-4.94,2.86A1.74,1.74,0,0,1,189.3,212.89Z"/><path class="cls-2" d="M197,217.34l-5-2.88c-.4-.23-.35-.63.11-.9l5-2.86a1.76,1.76,0,0,1,1.56-.06l5,2.88c.4.23.35.64-.11.9l-4.94,2.86A1.75,1.75,0,0,1,197,217.34Z"/><path class="cls-2" d="M204.72,221.79l-5-2.88c-.4-.23-.35-.63.11-.9l4.95-2.86a1.76,1.76,0,0,1,1.56-.06l5,2.88c.4.23.35.64-.11.9l-4.95,2.86A1.72,1.72,0,0,1,204.72,221.79Z"/><path class="cls-2" d="M212.43,226.24l-5-2.88c-.4-.23-.35-.63.11-.9l4.94-2.86a1.78,1.78,0,0,1,1.57-.06l5,2.88c.4.23.35.64-.11.9L214,226.18A1.72,1.72,0,0,1,212.43,226.24Z"/><path class="cls-2" d="M220.14,230.69l-5-2.88c-.4-.23-.35-.63.12-.9l4.94-2.86a1.78,1.78,0,0,1,1.57-.06l5,2.88c.4.23.35.64-.12.9l-4.94,2.86A1.72,1.72,0,0,1,220.14,230.69Z"/><path class="cls-2" d="M227.84,235.14l-5-2.88c-.4-.23-.35-.63.11-.9l4.95-2.86a1.76,1.76,0,0,1,1.56-.06l5,2.88c.41.23.36.64-.11.9l-4.94,2.86A1.75,1.75,0,0,1,227.84,235.14Z"/><path class="cls-2" d="M235.55,239.59l-5-2.88c-.4-.23-.35-.63.11-.9l5-2.86a1.76,1.76,0,0,1,1.56-.06l5,2.88c.4.23.35.64-.11.9l-4.95,2.86A1.72,1.72,0,0,1,235.55,239.59Z"/><path class="cls-2" d="M162.12,188.54l-5-2.89c-.4-.23-.35-.63.11-.9l4.95-2.85a1.73,1.73,0,0,1,1.56-.07l5,2.88c.4.23.35.64-.11.91l-4.94,2.85A1.75,1.75,0,0,1,162.12,188.54Z"/><path class="cls-2" d="M154.45,184.11l-5-2.88c-.4-.24-.35-.64.11-.91l5-2.85a1.73,1.73,0,0,1,1.56-.07l5,2.89c.41.23.36.63-.11.9L156,184A1.75,1.75,0,0,1,154.45,184.11Z"/><path class="cls-2" d="M146.78,179.68l-5-2.88c-.4-.23-.35-.64.12-.9l4.94-2.86a1.69,1.69,0,0,1,1.56-.06l5,2.88c.4.23.35.63-.12.9l-4.94,2.86A1.78,1.78,0,0,1,146.78,179.68Z"/><path class="cls-2" d="M139.11,175.25l-5-2.88c-.4-.23-.35-.64.12-.9l4.94-2.86a1.76,1.76,0,0,1,1.56-.06l5,2.88c.4.23.35.63-.12.9l-4.94,2.86A1.78,1.78,0,0,1,139.11,175.25Z"/><path class="cls-2" d="M147,170.7l-5-2.88c-.4-.23-.35-.64.11-.91l1.64-.94a1.69,1.69,0,0,1,1.56-.06l5,2.88c.4.23.35.63-.11.9l-1.64.94A1.73,1.73,0,0,1,147,170.7Z"/><path class="cls-2" d="M157,176.48l-5-2.88c-.4-.24-.35-.64.11-.91l1.64-.94a1.73,1.73,0,0,1,1.56-.07l5,2.89c.4.23.35.63-.11.9l-1.64.94A1.73,1.73,0,0,1,157,176.48Z"/><path class="cls-2" d="M164.65,180.89l-5-2.88c-.4-.24-.35-.64.11-.91l1.63-.94a1.75,1.75,0,0,1,1.57-.07l5,2.89c.4.23.35.63-.11.9l-1.64.94A1.73,1.73,0,0,1,164.65,180.89Z"/><path class="cls-2" d="M172.28,185.3l-5-2.89c-.4-.23-.35-.63.12-.9l1.63-.94a1.73,1.73,0,0,1,1.56-.07l5,2.88c.4.24.35.64-.12.91l-1.63.94A1.75,1.75,0,0,1,172.28,185.3Z"/><path class="cls-2" d="M179.92,189.71l-5-2.89c-.4-.23-.35-.63.11-.9l1.64-.94a1.73,1.73,0,0,1,1.56-.07l5,2.88c.4.24.35.64-.11.91l-1.63.94A1.75,1.75,0,0,1,179.92,189.71Z"/><path class="cls-2" d="M222.56,214.32l-5-2.88c-.4-.23-.35-.63.11-.9l1.64-.94a1.73,1.73,0,0,1,1.56-.07l5,2.88c.4.23.35.64-.11.9l-1.64.95A1.72,1.72,0,0,1,222.56,214.32Z"/><path class="cls-2" d="M230.2,218.73l-5-2.88c-.4-.23-.35-.63.11-.9L227,214a1.78,1.78,0,0,1,1.57-.06l5,2.88c.4.23.35.64-.11.9l-1.64.95A1.72,1.72,0,0,1,230.2,218.73Z"/><path class="cls-2" d="M237.84,223.14l-5-2.88c-.4-.23-.35-.63.12-.9l1.63-1a1.78,1.78,0,0,1,1.57-.06l5,2.88c.4.23.35.64-.12.9l-1.63,1A1.76,1.76,0,0,1,237.84,223.14Z"/><path class="cls-2" d="M245.47,227.55l-5-2.88c-.4-.23-.35-.64.11-.9l1.64-1a1.76,1.76,0,0,1,1.56-.06l5,2.88c.4.23.35.64-.11.9l-1.63,1A1.78,1.78,0,0,1,245.47,227.55Z"/><path class="cls-2" d="M169.83,193l-5-2.89c-.4-.23-.35-.63.11-.9l5-2.85a1.73,1.73,0,0,1,1.56-.07l5,2.88c.4.23.35.64-.11.91l-5,2.85A1.73,1.73,0,0,1,169.83,193Z"/><path class="cls-2" d="M177.54,197.44l-5-2.89c-.4-.23-.35-.63.11-.9l4.94-2.85a1.75,1.75,0,0,1,1.57-.07l5,2.88c.4.23.35.64-.11.91l-5,2.85A1.73,1.73,0,0,1,177.54,197.44Z"/><path class="cls-2" d="M185.25,201.89l-5-2.89c-.41-.23-.36-.63.11-.9l4.94-2.85a1.75,1.75,0,0,1,1.57-.07l5,2.88c.4.23.35.64-.11.91l-4.95,2.85A1.73,1.73,0,0,1,185.25,201.89Z"/><path class="cls-2" d="M193,206.34l-5-2.89c-.4-.23-.35-.63.12-.9L193,199.7a1.73,1.73,0,0,1,1.56-.07l5,2.88c.4.23.35.64-.12.91l-4.94,2.85A1.75,1.75,0,0,1,193,206.34Z"/><path class="cls-2" d="M200.66,210.79l-5-2.89c-.4-.23-.35-.63.11-.9l4.95-2.85a1.73,1.73,0,0,1,1.56-.07l5,2.88c.4.23.35.64-.11.91l-4.94,2.85A1.75,1.75,0,0,1,200.66,210.79Z"/><path class="cls-2" d="M208.37,215.24l-5-2.89c-.4-.23-.35-.63.11-.9l4.95-2.85a1.73,1.73,0,0,1,1.56-.07l5,2.88c.4.24.35.64-.11.91l-4.95,2.85A1.73,1.73,0,0,1,208.37,215.24Z"/><path class="cls-2" d="M216.08,219.69l-5-2.89c-.4-.23-.35-.63.11-.9l4.94-2.85a1.75,1.75,0,0,1,1.57-.07l5,2.88c.4.24.35.64-.11.91l-5,2.85A1.73,1.73,0,0,1,216.08,219.69Z"/><path class="cls-2" d="M223.79,224.14l-5-2.89c-.4-.23-.35-.63.12-.9l4.94-2.85a1.73,1.73,0,0,1,1.56-.07l5,2.88c.4.24.35.64-.12.91l-4.94,2.85A1.73,1.73,0,0,1,223.79,224.14Z"/><path class="cls-2" d="M231.49,228.59l-5-2.89c-.4-.23-.35-.63.11-.9l4.95-2.85a1.73,1.73,0,0,1,1.56-.07l5,2.88c.4.24.35.64-.11.91l-4.94,2.85A1.75,1.75,0,0,1,231.49,228.59Z"/><path class="cls-2" d="M125.76,193.54l-14.7-8.49c-.4-.23-.35-.64.12-.9l4.94-2.86a1.72,1.72,0,0,1,1.57-.06l14.7,8.48c.4.23.35.64-.12.91l-4.94,2.85A1.75,1.75,0,0,1,125.76,193.54Z"/><path class="cls-2" d="M220.46,248.21l-14.7-8.49c-.4-.23-.35-.64.11-.9l4.94-2.86a1.72,1.72,0,0,1,1.57-.06l14.7,8.48c.4.23.35.64-.12.91L222,248.14A1.73,1.73,0,0,1,220.46,248.21Z"/><path class="cls-2" d="M189.63,240.24l-5-2.88c-.4-.23-.35-.64.11-.91l5.89-3.4a1.78,1.78,0,0,1,1.57-.06l5,2.88c.4.23.35.64-.11.9l-5.9,3.4A1.73,1.73,0,0,1,189.63,240.24Z"/><path class="cls-2" d="M133.66,207.92l-8-4.61c-.41-.23-.36-.63.11-.9l5.89-3.4a1.69,1.69,0,0,1,1.56-.06l8,4.6c.41.23.35.64-.11.91l-5.89,3.4A1.76,1.76,0,0,1,133.66,207.92Z"/><path class="cls-2" d="M182.2,236l-8-4.61c-.4-.23-.35-.63.12-.9l5.89-3.4a1.73,1.73,0,0,1,1.56-.07l8,4.61c.4.23.35.64-.11.91l-5.89,3.4A1.78,1.78,0,0,1,182.2,236Z"/><path class="cls-2" d="M144.78,214.34l-8-4.61c-.4-.23-.35-.63.11-.9l5.89-3.4a1.69,1.69,0,0,1,1.56-.06l8,4.6c.4.24.35.64-.12.91l-5.89,3.4A1.72,1.72,0,0,1,144.78,214.34Z"/><path class="cls-2" d="M144.42,205.4l34.7,20a.48.48,0,0,1,0,.9l-6,3.47a1.72,1.72,0,0,1-1.56,0l-34.7-20Z"/><path class="cls-2" d="M211.17,248.31l5.56,3.21c.33.19.29.52-.09.74l-2.41,1.39a1.42,1.42,0,0,1-1.28,0l-5.56-3.21c-.33-.19-.29-.52.09-.74l2.41-1.39A1.42,1.42,0,0,1,211.17,248.31Z"/><path class="cls-2" d="M203.4,243.82,209,247c.33.19.29.52-.09.74l-2.41,1.39a1.42,1.42,0,0,1-1.28.05L199.62,246c-.33-.18-.29-.52.09-.74l2.41-1.39A1.42,1.42,0,0,1,203.4,243.82Z"/><path class="cls-2" d="M195.69,239.37l5.56,3.21c.33.19.29.52-.09.74l-2.41,1.39a1.42,1.42,0,0,1-1.28,0l-5.56-3.21c-.33-.18-.29-.52.09-.74l2.41-1.39A1.42,1.42,0,0,1,195.69,239.37Z"/><path class="cls-2" d="M207.66,241.36l5.56,3.21c.33.19.28.52-.09.74l-2.41,1.39a1.44,1.44,0,0,1-1.29.06l-5.56-3.21c-.32-.19-.28-.52.1-.74l2.41-1.39A1.42,1.42,0,0,1,207.66,241.36Z"/><path class="cls-1" d="M215.93,131.79,211.16,129a2,2,0,0,1-.82-1.54h0c0-.6.34-.87.78-.61l4.78,2.75a2,2,0,0,1,.82,1.54h0C216.73,131.77,216.38,132,215.93,131.79Z"/><path class="cls-1" d="M227.3,138.35l-7-4.06a2,2,0,0,1-.81-1.54h0c0-.6.34-.87.78-.62l7,4.07a2,2,0,0,1,.82,1.54h0C228.1,138.33,227.75,138.61,227.3,138.35Z"/><path class="cls-1" d="M213.57,157.24l-4.78-2.75A2,2,0,0,1,208,153h0c0-.6.35-.87.79-.62l4.77,2.76a1.94,1.94,0,0,1,.82,1.54h0C214.36,157.22,214,157.5,213.57,157.24Z"/><path class="cls-1" d="M223.7,163.09l-7-4.06a2,2,0,0,1-.81-1.54h0c0-.6.34-.87.78-.61l7,4.06a2,2,0,0,1,.82,1.54h0C224.5,163.07,224.15,163.35,223.7,163.09Z"/><path class="cls-1" d="M202.84,128.7l-3-1.72a2,2,0,0,1-.82-1.54h0c0-.6.34-.87.79-.62l3,1.72a2,2,0,0,1,.82,1.54h0C203.64,128.68,203.29,129,202.84,128.7Z"/><path class="cls-1" d="M213,139.05l-9.11-5.26a2,2,0,0,1-.82-1.54h0c0-.6.34-.87.78-.62l9.11,5.26a2,2,0,0,1,.82,1.54h0C213.82,139,213.47,139.3,213,139.05Z"/><path class="cls-1" d="M207,144.53l-3-1.72a2,2,0,0,1-.82-1.54h0c0-.59.34-.87.79-.61l3,1.72a2,2,0,0,1,.82,1.54h0C207.84,144.51,207.49,144.79,207,144.53Z"/><path class="cls-1" d="M227.22,174.07l-8-4.6a2,2,0,0,1-.82-1.54h0c0-.6.34-.87.78-.62l8,4.6a2,2,0,0,1,.82,1.54h0C228,174.05,227.67,174.32,227.22,174.07Z"/><path class="cls-1" d="M206.12,152.94l-1.91-1.1a2,2,0,0,1-.82-1.54h0c0-.6.34-.87.78-.62l1.92,1.11a2,2,0,0,1,.82,1.54h0C206.92,152.92,206.56,153.2,206.12,152.94Z"/><path class="cls-1" d="M206.73,162.23l-2.38-1.37a2,2,0,0,1-.82-1.54h0c0-.59.35-.87.79-.61l2.38,1.37a2,2,0,0,1,.82,1.54h0C207.53,162.22,207.17,162.49,206.73,162.23Z"/><path class="cls-1" d="M216,167.57,209.71,164a2,2,0,0,1-.82-1.54h0c0-.6.34-.87.79-.62l6.26,3.62a2,2,0,0,1,.82,1.54h0C216.77,167.55,216.42,167.83,216,167.57Z"/><path class="cls-1" d="M208.93,168l-4.5-2.61a1.93,1.93,0,0,1-.82-1.53h0c0-.6.34-.87.78-.62l4.51,2.6a2,2,0,0,1,.82,1.54h0C209.73,168,209.38,168.23,208.93,168Z"/><path class="cls-1" d="M234.06,178l-2.89-1.67a1.94,1.94,0,0,1-.82-1.54h0c0-.59.34-.87.78-.61l2.9,1.67a2,2,0,0,1,.82,1.54h0C234.86,178,234.5,178.29,234.06,178Z"/><path class="cls-1" d="M218.14,150.94l-8-4.6a2,2,0,0,1-.82-1.54h0c0-.59.34-.87.79-.61l8,4.59a2,2,0,0,1,.82,1.54h0C218.93,150.92,218.58,151.19,218.14,150.94Z"/><path class="cls-1" d="M217.87,146.31l-13.88-8a2,2,0,0,1-.82-1.54h0c0-.59.34-.87.78-.61l13.89,8a2,2,0,0,1,.81,1.54h0C218.66,146.3,218.31,146.57,217.87,146.31Z"/><path class="cls-1" d="M212.1,151.92l-8-4.6a1.92,1.92,0,0,1-.81-1.53h0c0-.6.34-.87.78-.62l8,4.6a2,2,0,0,1,.82,1.54h0C212.89,151.9,212.54,152.18,212.1,151.92Z"/><path class="cls-1" d="M224.18,154.43l-2.9-1.67a2,2,0,0,1-.82-1.54h0c0-.6.35-.87.79-.62l2.89,1.67a2,2,0,0,1,.82,1.54h0C225,154.41,224.62,154.68,224.18,154.43Z"/><path class="cls-1" d="M248.77,150.75l-17.13-9.9a1.94,1.94,0,0,1-.82-1.54h0c0-.59.34-.87.78-.61l17.14,9.89a2,2,0,0,1,.82,1.54h0C249.57,150.73,249.22,151,248.77,150.75Z"/><path class="cls-1" d="M213.86,161.88l-9.58-5.53a2,2,0,0,1-.82-1.54h0c0-.59.34-.87.79-.61l9.57,5.52a2,2,0,0,1,.82,1.54h0C214.65,161.86,214.3,162.13,213.86,161.88Z"/><path class="cls-1" d="M206.83,126.53l-7-4.07a2,2,0,0,1-.82-1.54h0c0-.59.34-.87.78-.61l7,4.06a2,2,0,0,1,.82,1.54h0C207.62,126.51,207.27,126.78,206.83,126.53Z"/><path class="cls-1" d="M208.67,172.3l-8.15-4.71a2,2,0,0,1-.82-1.54h0c0-.6.34-.87.78-.61l8.16,4.7a2,2,0,0,1,.82,1.54h0C209.47,172.28,209.11,172.55,208.67,172.3Z"/><path class="cls-1" d="M.23,179.38l42-24.45c8.32-4.8,16.16-5.56,22.09-2.14s9.19,10.6,9.19,20.2v3.08c-.3.2-.61.4-.93.59V173c0-9.26-3.1-16.15-8.72-19.4s-13.15-2.48-21.17,2.15l-42,24.44A.45.45,0,0,1,.06,180,.47.47,0,0,1,.23,179.38Z"/><path class="cls-1" d="M131.18,150.26V55.63c0-18.94,13.35-42.05,29.75-51.52C169-.53,176.54-1.27,182.27,2s8.87,10.23,8.87,19.51v6.6l-.92.92V21.55c0-8.93-3-15.58-8.42-18.71S169.13.44,161.39,4.91C145.24,14.23,132.11,37,132.11,55.63v94.63c0,15.7-9.24,34.28-21.77,45.46v-1.24C122.37,183.42,131.18,165.47,131.18,150.26Z"/><path class="cls-2" d="M191.14,31h0a37.18,37.18,0,0,1,19-9.28c11.72-1.79,16.56,11.91,16.56,11.91A75.8,75.8,0,0,1,228,45c0,4.21-.35,19.51-.35,19.51L190.47,43.12h0a.46.46,0,0,1-.25-.41V31.84C190.53,31.53,190.83,31.35,191.14,31Z"/><path class="cls-1" d="M217.47,22.33,182.27,2l.13.5C177-1,168.78-1.34,157.81,6.7c-21.79,16-24.41,38.22-25.52,42.39s-.65,30.58-.65,30.58-.08,63.69-.15,71.1-2.23,15.72-6.39,24.69-14.85,19.87-14.85,19.87v13c1.71,14,7.66,17.29,16.52,18.08,7.15.65,14.77-4.51,20.86-10.14l-.37.38v13c1.71,14,7.66,17.28,16.52,18.08s18.45-7.32,24.94-14.19,12-17.36,15-26.82,2-21.69,2-21.69.07-69.63.15-83.35.5-11.33,5-25.13S227.36,53,227.36,53L256,44.49Z"/><path class="cls-2" d="M156.18,246.49c-.48-.65-6.75-4.86-8.35-12.27a57.7,57.7,0,0,1-.8-10.38s0-3.49.11-6.65l.21-.18v-1.25l-.17.16c0-.72,0-1.39.08-2,.18-3.29-2.25-10.31-2.25-10.31s-3.45-9.41-13.73-9.77c-9.12-.32-18.73,6.24-20.77,7.72v-4.25l-.42.27c0-.57,0-1.15,0-1.72l.21-.18v-1.24l-.17.15c0-.71,0-1.38.08-1.95.18-3.3-2.25-10.32-2.25-10.32s-3.45-9.4-13.73-9.77c-9.12-.32-18.73,6.25-20.77,7.72v-4.24c-.3.2-.61.4-.93.59v7.43c0,9,3,15.78,8.46,19.15l0,0,.19.11.15.1.1.05,37.68,21.69s0,0,0-.05Z"/><path class="cls-1" d="M101.32,174.08a8.53,8.53,0,0,0-.78-.35l-.45-.23L64.31,152.79a19.2,19.2,0,0,0-14.52-.54C41.84,155.16.18,180.15.18,180.15L37.4,201.59h0l.1,0,36.91,21.27s20.88-12.94,35.32-21.29l.93-.53c5.9-3.39,10.59-5.93,12.06-6.32,8.91-2.36,15.11.52,16.72,1.4Z"/><path class="cls-1" d="M139.44,196.14l.43.25Z"/><path class="cls-2" d="M228.15,52.33h0a37.1,37.1,0,0,1,19-9.28C258.83,41.26,263.67,55,263.67,55A76.53,76.53,0,0,1,265,66.29c-.05,4.21-.35,19.51-.35,19.51L227.48,64.4h0a.46.46,0,0,1-.25-.41V53.13C227.54,52.82,227.85,52.64,228.15,52.33Z"/><path class="cls-3" d="M163.42,248.18c4.1,0,8.63-1.37,13.32-4.08,16.29-9.4,29.53-32.35,29.53-51.15V98.32c0-18.64,13.14-41.4,29.29-50.72,7.74-4.47,15-5.2,20.41-2.07s8.42,9.77,8.42,18.71V85.39a.45.45,0,0,0,.46.46.46.46,0,0,0,.46-.46V64.24c0-9.28-3.15-16.21-8.88-19.51s-13.3-2.57-21.33,2.06c-16.41,9.47-29.75,32.59-29.75,51.53V193c0,18.51-13,41.1-29.07,50.35-7.68,4.43-14.87,5.16-20.26,2s-8.35-9.7-8.35-18.57v-11.1c0-9.6-3.26-16.78-9.19-20.2s-13.77-2.66-22.09,2.14l-42,24.45a.47.47,0,0,0-.17.64.46.46,0,0,0,.63.16l42-24.44c8-4.63,15.54-5.4,21.17-2.15s8.72,10.14,8.72,19.4v11.1c0,9.21,3.13,16.09,8.82,19.38A15.52,15.52,0,0,0,163.42,248.18Z"/><path class="cls-8" d="M166.32,121.51l-6.21-3.58a2.56,2.56,0,0,1-1.06-2h0c0-.78.44-1.13,1-.8l6.2,3.58a2.56,2.56,0,0,1,1.07,2h0C167.35,121.49,166.9,121.85,166.32,121.51Z"/><path class="cls-8" d="M179.5,129.12l-9.15-5.28a2.54,2.54,0,0,1-1.07-2h0c0-.78.45-1.13,1-.8l9.16,5.28a2.58,2.58,0,0,1,1.06,2h0C180.53,129.1,180.08,129.46,179.5,129.12Z"/><path class="cls-8" d="M165.62,97.86,153.77,91a2.59,2.59,0,0,1-1.07-2h0c0-.77.45-1.13,1-.8l11.85,6.85a2.56,2.56,0,0,1,1.07,2h0C166.65,97.83,166.19,98.19,165.62,97.86Z"/><path class="cls-8" d="M157.84,105,154,102.75a2.57,2.57,0,0,1-1.07-2h0c0-.77.45-1.13,1-.8l3.88,2.24a2.57,2.57,0,0,1,1.07,2h0C158.87,105,158.41,105.32,157.84,105Z"/><path class="cls-8" d="M156.64,115.92l-2.49-1.43a2.59,2.59,0,0,1-1.07-2h0c0-.77.45-1.13,1-.79l2.49,1.43a2.56,2.56,0,0,1,1.07,2h0C157.67,115.9,157.21,116.26,156.64,115.92Z"/><path class="cls-8" d="M172.26,113.32l-10.36-6a2.56,2.56,0,0,1-1.06-2h0c0-.78.44-1.13,1-.8l10.36,6a2.56,2.56,0,0,1,1.06,2h0C173.29,113.29,172.84,113.65,172.26,113.32Z"/><path class="cls-8" d="M171.91,107.31l-18-10.43a2.56,2.56,0,0,1-1.06-2h0c0-.77.44-1.13,1-.8l18.05,10.42a2.59,2.59,0,0,1,1.07,2h0C173,107.28,172.49,107.64,171.91,107.31Z"/><path class="cls-8" d="M164.41,114.6l-10.36-6a2.56,2.56,0,0,1-1.06-2h0c0-.78.44-1.13,1-.8l10.36,6a2.56,2.56,0,0,1,1.06,2h0C165.44,114.57,165,114.93,164.41,114.6Z"/><path class="cls-8" d="M180.12,117.85l-3.77-2.17a2.56,2.56,0,0,1-1.06-2h0c0-.77.44-1.13,1-.8l3.76,2.17a2.59,2.59,0,0,1,1.07,2h0C181.15,117.83,180.69,118.19,180.12,117.85Z"/><path class="cls-8" d="M169.4,88.41l-6.21-3.58a2.54,2.54,0,0,1-1.07-2h0c0-.78.45-1.14,1-.8l6.21,3.58a2.57,2.57,0,0,1,1.07,2h0C170.43,88.39,170,88.74,169.4,88.41Z"/><path class="cls-8" d="M184.18,97,175,91.66a2.56,2.56,0,0,1-1.07-2h0c0-.77.45-1.13,1-.8l9.16,5.29a2.56,2.56,0,0,1,1.06,2h0C185.21,96.92,184.76,97.28,184.18,97Z"/><path class="cls-8" d="M166.32,121.51l-6.21-3.58a2.56,2.56,0,0,1-1.06-2h0c0-.78.44-1.13,1-.8l6.2,3.58a2.56,2.56,0,0,1,1.07,2h0C167.35,121.49,166.9,121.85,166.32,121.51Z"/><path class="cls-8" d="M179.5,129.12l-9.15-5.28a2.54,2.54,0,0,1-1.07-2h0c0-.78.45-1.13,1-.8l9.16,5.28a2.58,2.58,0,0,1,1.06,2h0C180.53,129.1,180.08,129.46,179.5,129.12Z"/><path class="cls-8" d="M152.37,84.4l-3.87-2.24a2.54,2.54,0,0,1-1.07-2h0c0-.78.45-1.13,1-.8l3.88,2.24a2.54,2.54,0,0,1,1.06,2h0C153.41,84.37,153,84.73,152.37,84.4Z"/><path class="cls-8" d="M165.62,97.86,153.77,91a2.59,2.59,0,0,1-1.07-2h0c0-.77.45-1.13,1-.8l11.85,6.85a2.56,2.56,0,0,1,1.07,2h0C166.65,97.83,166.19,98.19,165.62,97.86Z"/><path class="cls-8" d="M157.84,105,154,102.75a2.57,2.57,0,0,1-1.07-2h0c0-.77.45-1.13,1-.8l3.88,2.24a2.57,2.57,0,0,1,1.07,2h0C158.87,105,158.41,105.32,157.84,105Z"/><path class="cls-8" d="M184.08,143.39l-10.36-6a2.57,2.57,0,0,1-1.07-2h0c0-.77.45-1.13,1-.8l10.36,6a2.57,2.57,0,0,1,1.07,2h0C185.11,143.37,184.65,143.72,184.08,143.39Z"/><path class="cls-8" d="M156.64,115.92l-2.49-1.43a2.59,2.59,0,0,1-1.07-2h0c0-.77.45-1.13,1-.79l2.49,1.43a2.56,2.56,0,0,1,1.07,2h0C157.67,115.9,157.21,116.26,156.64,115.92Z"/><path class="cls-8" d="M157.43,128l-3.09-1.79a2.57,2.57,0,0,1-1.07-2h0c0-.77.45-1.13,1-.8l3.09,1.79a2.54,2.54,0,0,1,1.07,2h0C158.46,128,158,128.34,157.43,128Z"/><path class="cls-8" d="M169.46,135l-8.15-4.71a2.53,2.53,0,0,1-1.07-2h0c0-.77.44-1.13,1-.8l8.15,4.71a2.57,2.57,0,0,1,1.07,2h0C170.49,134.93,170,135.28,169.46,135Z"/><path class="cls-8" d="M160.29,135.47l-5.86-3.38a2.56,2.56,0,0,1-1.06-2h0c0-.78.44-1.13,1-.8l5.86,3.38a2.58,2.58,0,0,1,1.06,2h0C161.33,135.45,160.87,135.81,160.29,135.47Z"/><path class="cls-8" d="M172.26,113.32l-10.36-6a2.56,2.56,0,0,1-1.06-2h0c0-.78.44-1.13,1-.8l10.36,6a2.56,2.56,0,0,1,1.06,2h0C173.29,113.29,172.84,113.65,172.26,113.32Z"/><path class="cls-8" d="M171.91,107.31l-18-10.43a2.56,2.56,0,0,1-1.06-2h0c0-.77.44-1.13,1-.8l18.05,10.42a2.59,2.59,0,0,1,1.07,2h0C173,107.28,172.49,107.64,171.91,107.31Z"/><path class="cls-8" d="M164.41,114.6l-10.36-6a2.56,2.56,0,0,1-1.06-2h0c0-.78.44-1.13,1-.8l10.36,6a2.56,2.56,0,0,1,1.06,2h0C165.44,114.57,165,114.93,164.41,114.6Z"/><path class="cls-8" d="M180.12,117.85l-3.77-2.17a2.56,2.56,0,0,1-1.06-2h0c0-.77.44-1.13,1-.8l3.76,2.17a2.59,2.59,0,0,1,1.07,2h0C181.15,117.83,180.69,118.19,180.12,117.85Z"/><path class="cls-8" d="M166.69,127.54l-12.45-7.19a2.55,2.55,0,0,1-1.06-2h0c0-.77.44-1.13,1-.8l12.45,7.19a2.56,2.56,0,0,1,1.06,2h0C167.73,127.52,167.27,127.88,166.69,127.54Z"/><path class="cls-8" d="M157.55,81.58l-9.15-5.29a2.56,2.56,0,0,1-1.06-2h0c0-.77.44-1.13,1-.8l9.15,5.29a2.52,2.52,0,0,1,1.06,2h0C158.59,81.55,158.13,81.91,157.55,81.58Z"/><path class="cls-8" d="M160,141.09,149.35,135a2.56,2.56,0,0,1-1.06-2h0c0-.78.44-1.13,1-.8l10.6,6.12a2.56,2.56,0,0,1,1.06,2h0C161,141.07,160.53,141.42,160,141.09Z"/><path class="cls-8" d="M164.86,177.2l-6.21-3.59a2.55,2.55,0,0,1-1.06-2h0c0-.77.44-1.13,1-.8l6.21,3.59a2.56,2.56,0,0,1,1.06,2h0C165.89,177.17,165.44,177.53,164.86,177.2Z"/><path class="cls-8" d="M178,184.81l-9.15-5.29a2.57,2.57,0,0,1-1.07-2h0c0-.77.45-1.13,1-.8L178,182a2.56,2.56,0,0,1,1.06,2h0C179.07,184.78,178.62,185.14,178,184.81Z"/><path class="cls-8" d="M164.16,153.54l-11.85-6.84a2.57,2.57,0,0,1-1.07-2h0c0-.78.45-1.13,1-.8l11.85,6.84a2.57,2.57,0,0,1,1.07,2h0C165.19,153.52,164.73,153.87,164.16,153.54Z"/><path class="cls-8" d="M156.38,160.67l-3.88-2.23a2.59,2.59,0,0,1-1.07-2h0c0-.77.45-1.13,1-.79l3.88,2.23a2.59,2.59,0,0,1,1.07,2h0C157.41,160.65,157,161,156.38,160.67Z"/><path class="cls-8" d="M155.18,171.61l-2.49-1.44a2.57,2.57,0,0,1-1.07-2h0c0-.77.45-1.13,1-.8l2.49,1.44a2.54,2.54,0,0,1,1.07,2h0C156.21,171.58,155.75,171.94,155.18,171.61Z"/><path class="cls-8" d="M170.8,169l-10.36-6a2.56,2.56,0,0,1-1.06-2h0c0-.77.44-1.13,1-.8l10.36,6a2.56,2.56,0,0,1,1.06,2h0C171.83,169,171.38,169.34,170.8,169Z"/><path class="cls-8" d="M170.46,163,152.4,152.57a2.56,2.56,0,0,1-1.06-2h0c0-.78.44-1.14,1-.8l18,10.42a2.57,2.57,0,0,1,1.07,2h0C171.49,163,171,163.32,170.46,163Z"/><path class="cls-8" d="M163,170.28l-10.36-6a2.56,2.56,0,0,1-1.06-2h0c0-.77.44-1.13,1-.8l10.36,6a2.58,2.58,0,0,1,1.06,2h0C164,170.26,163.53,170.62,163,170.28Z"/><path class="cls-8" d="M178.66,173.54l-3.77-2.17a2.58,2.58,0,0,1-1.06-2h0c0-.77.44-1.13,1-.8l3.76,2.18a2.57,2.57,0,0,1,1.07,2h0C179.69,173.51,179.23,173.87,178.66,173.54Z"/><polygon class="cls-1" points="210.24 306.81 221.74 300.17 233.23 306.81 221.74 313.45 210.24 306.81"/><polygon class="cls-1" points="234.64 292.53 246.14 285.9 257.64 292.53 246.14 299.17 234.64 292.53"/><polygon class="cls-1" points="258.97 278.6 270.47 271.96 281.97 278.6 270.47 285.23 258.97 278.6"/><polygon class="cls-11" points="246.14 292.53 246.14 257.13 234.64 250.5 234.64 285.9 246.14 292.53"/><polygon class="cls-11" points="246.14 257.13 257.64 250.5 257.64 285.9 246.14 292.53 246.14 257.13"/><polygon class="cls-11" points="246.14 292.53 246.14 257.13 234.64 250.5 234.64 285.9 246.14 292.53"/><polygon class="cls-11" points="221.74 306.81 221.74 286.9 210.24 280.26 210.24 300.17 221.74 306.81"/><polygon class="cls-11" points="221.74 286.9 233.23 280.26 233.23 300.17 221.74 306.81 221.74 286.9"/><polygon class="cls-12" points="210.24 280.26 221.74 273.62 233.23 280.26 221.74 286.9 210.24 280.26"/><polygon class="cls-11" points="270.47 278.6 270.47 229.92 258.97 223.28 258.97 271.96 270.47 278.6"/><polygon class="cls-11" points="270.47 229.92 281.97 223.28 281.97 271.96 270.47 278.6 270.47 229.92"/><polygon class="cls-12" points="258.97 223.28 270.47 216.65 281.97 223.28 270.47 229.92 258.97 223.28"/><polygon class="cls-12" points="234.64 250.5 246.14 243.86 257.64 250.5 246.14 257.13 234.64 250.5"/><path class="cls-8" d="M46.68,240.4s-3.55-1.79-5.73.87-5.3,9-5.39,13.21,3.36,4,5.42,3,8.07-9.72,8.43-11.43-.43-4-1-4.47S46.68,240.4,46.68,240.4Z"/><path class="cls-1" d="M47.45,239.54l.17,3.68a2.09,2.09,0,0,1-1,1.91,4.08,4.08,0,0,1-2.74.43c-2.67-.43-2.91-1.19-3.1-4.87S47.45,239.54,47.45,239.54Z"/><path class="cls-8" d="M33.69,233.33s-3.55-1.79-5.73.88-5.3,8.95-5.39,13.2,3.36,4,5.42,3,8.06-9.72,8.43-11.43-.43-4-1-4.47S33.69,233.33,33.69,233.33Z"/><path class="cls-1" d="M34.46,232.47l.17,3.68a2.09,2.09,0,0,1-1,1.91,4,4,0,0,1-2.74.43c-2.67-.43-2.91-1.19-3.1-4.87S34.46,232.47,34.46,232.47Z"/><path class="cls-2" d="M66.13,165c-1-17.09-18.51,2.52-18.51,2.52L35.67,179.2,24.91,191a10.59,10.59,0,0,0-2.67,8.52l4.35,33.14a3.26,3.26,0,0,0,3.27,2.83,10,10,0,0,0,1.61-.14,4.06,4.06,0,0,0,3.6-4.3l-.8-31,22.6-13.62S67.18,182.06,66.13,165Z"/><path class="cls-2" d="M79.12,171.48C78.07,154.39,60.61,174,60.61,174l-12,11.71L37.9,197.53a10.6,10.6,0,0,0-2.67,8.52l4.35,33.14A3.26,3.26,0,0,0,42.85,242a10,10,0,0,0,1.61-.14,4,4,0,0,0,3.6-4.29l-.8-31L69.86,193S80.17,188.57,79.12,171.48Z"/><path class="cls-8" d="M68.79,116.62c13.24,5.49,13,13.32,13,13.32s-2.59,28.68-1.71,47.83c.37,8-42.54,8.62-36.14-12.74,7.54-25.19,4.71-45.58,8.25-48.66S65.37,115.2,68.79,116.62Z"/><path class="cls-13" d="M73.05,123.56c-.69,2.69-4.21,4.11-7.87,3.16s-6.05-3.88-5.35-6.56S64,116.05,67.69,117,73.74,120.87,73.05,123.56Z"/><path class="cls-10" d="M67.42,127.65a9.51,9.51,0,0,1-2.39-.31,8.8,8.8,0,0,1-4.64-2.84,5.07,5.07,0,0,1-1.18-4.5c.78-3,4.65-4.65,8.64-3.62a8.88,8.88,0,0,1,4.64,2.84,5.06,5.06,0,0,1,1.17,4.5h0C73,126.13,70.46,127.65,67.42,127.65Zm-2-10.32c-2.46,0-4.52,1.15-5,3a3.86,3.86,0,0,0,.93,3.39,7.54,7.54,0,0,0,4,2.41c3.31.85,6.49-.36,7.1-2.71h0a3.84,3.84,0,0,0-.93-3.38,7.57,7.57,0,0,0-4-2.41A8.15,8.15,0,0,0,65.43,117.33Z"/><path class="cls-13" d="M63.48,116a31.29,31.29,0,0,1-.11,4.72c-.07,1.32,4.54,2.55,5.74,1.36s.71-2.44,1-6.92S63.48,116,63.48,116Z"/><path class="cls-14" d="M70.11,115.19s-1.14,4.16-6.74,5.75l.08-3.78Z"/><circle class="cls-13" cx="63.8" cy="107.17" r="10.19" transform="translate(-60.91 108.49) rotate(-59.84)"/><path class="cls-14" d="M66.14,107.54s-5.61,2.4-9.5,2.43-3-3.22-3-3.22l11.53-1.67Z"/><path class="cls-12" d="M55.49,108.17s4.88-2.07,9.17-1.21a4.56,4.56,0,0,1,2.59,1.54,1.54,1.54,0,0,0,.78.57c.76.17,2-3,3.48-3s2.47,1,1.26,2.91-.81,4.11-.25,4.42S79,109.14,73.78,98.8,55.31,94,53.25,96.13c0,0-2.17,1.89-3.93.21C49.32,96.34,47.34,111.16,55.49,108.17Z"/><path class="cls-13" d="M74.34,150.89v7.75a3.19,3.19,0,0,1-1,2.34L57.38,175.49l1.81,2.77,21-15.25A4.29,4.29,0,0,0,82,160l1.42-13.52Z"/><path class="cls-8" d="M80.64,126.06s4.83,7.26,6.63,26.39c0,0-8.25,2.66-12.93,1.15S80.64,126.06,80.64,126.06Z"/><path class="cls-3" d="M73.45,135.24s-1.89,10.13-2,14.88a3,3,0,0,0,2,2.93h0Z"/><path class="cls-8" d="M69.32,185.57l-3.52-.47L43.09,172a3.14,3.14,0,0,0-2.84.12l-16.1,9.29L22,181.12v2.11h0a.85.85,0,0,0,.49.75l25.75,14.86a3.17,3.17,0,0,0,2.84-.11l17.53-10.12a1.14,1.14,0,0,0,.69-1h0Z"/><path class="cls-3" d="M52.25,177.28l-1.61-.93H32.9l-8.75,5.05L22,181.12v2.11h0a.85.85,0,0,0,.49.75l25.75,14.86a2.63,2.63,0,0,0,1.46.28Z"/><path class="cls-8" d="M23,181.24l-.95-.12v2.11h0a.85.85,0,0,0,.49.75l.46.26Z"/><path class="cls-10" d="M48.52,199a3.22,3.22,0,0,0,2.41-.15v-3.6H48.52Z"/><path class="cls-10" d="M48.26,196.73,22.51,181.86c-.73-.42-.63-1.15.21-1.64l17.53-10.11a3.14,3.14,0,0,1,2.84-.12l25.74,14.86c.73.42.64,1.16-.2,1.64L51.1,196.61A3.17,3.17,0,0,1,48.26,196.73Z"/><path class="cls-1" d="M47.82,194.47l-21.4-12.35c-.61-.35-.53-1,.17-1.37L36,175.47a2.63,2.63,0,0,1,2.36-.1l21.41,12.36c.6.35.53,1-.17,1.36l-9.4,5.29A2.63,2.63,0,0,1,47.82,194.47Z"/><path class="cls-13" d="M41.24,169.62,41,171.39a13.18,13.18,0,0,0,.11,4.56l.32,1.56a2.2,2.2,0,0,0,1.76,1.73h0a1.22,1.22,0,0,0,1.43-1.06l.42-3.79s1,1.27,1.44,1.27-.52-3.8-1.58-6S41.24,169.62,41.24,169.62Z"/><path class="cls-13" d="M50,141.39l-2.76,5.46A10.62,10.62,0,0,0,46.08,151l-1.2,18.7-3.64-.08-1.65-21a7.42,7.42,0,0,1,.1-1.94L41.57,136Z"/><path class="cls-2" d="M47.38,198.15l-2.15-2.81-22.7-13.15a3.16,3.16,0,0,1-1.32-2.52l0-18.58-1.3-1.71,1.22-.71h0a.81.81,0,0,1,.89,0l25.73,14.89a3.12,3.12,0,0,1,1.31,2.52l0,20.24a1.15,1.15,0,0,1-.48,1.08h0Z"/><path class="cls-3" d="M31.69,187.5l-1.62-.94-8.85-15.37v-10.1l-1.3-1.71,1.22-.71h0a.81.81,0,0,1,.89,0l25.73,14.89a2.67,2.67,0,0,1,1,1.13Z"/><path class="cls-8" d="M20.5,160.14l-.57-.76,1.22-.71h0a.81.81,0,0,1,.89,0l.46.26Z"/><path class="cls-9" d="M48,173.79A3.29,3.29,0,0,1,49.08,176l-2.52,1.45-1.2-2.09Z"/><path class="cls-8" d="M46.54,174.33,20.82,159.44c-.73-.43-1.32,0-1.32,1l0,20.24a3.15,3.15,0,0,0,1.31,2.52l25.73,14.9c.73.42,1.32,0,1.32-1l0-20.24A3.16,3.16,0,0,0,46.54,174.33Z"/><path class="cls-13" d="M59.19,178.26l-.41.85a5.71,5.71,0,0,1-2.15,2.39l-2.56,1.57a2.53,2.53,0,0,1-2.6.06l-.09,0a1.54,1.54,0,0,1-.22-2.36L53.83,178s-1.5,1.15-1.92.69,1.46-2,2.81-2a5.39,5.39,0,0,0,2.66-1.12Z"/><path class="cls-8" d="M52.42,116.33S42.63,127,38.68,136.75a20,20,0,0,0,11.55,8.4C58.42,147.52,52.42,116.33,52.42,116.33Z"/><path class="cls-3" d="M48.38,144.52,50,129.19l-3.74,14.36A22.46,22.46,0,0,0,48.38,144.52Z"/><path class="cls-10" d="M59.75,114.18l-2.63-.72a6.41,6.41,0,0,0,3.09,2.48c1.84.5,2.12-1,2.12-1Z"/><path class="cls-10" d="M73.8,110a1.47,1.47,0,1,1-1.46-1.46A1.46,1.46,0,0,1,73.8,110Z"/><path class="cls-12" d="M292.5,115.57l-4.41-9,9-4.42,4.41,9Zm-1.74-8.06,2.65,5.38,5.38-2.64-2.64-5.39Z"/><path class="cls-1" d="M103.21,286.55c-9.8-5.66-25.69-5.66-35.49,0s-9.8,14.83,0,20.49,25.69,5.66,35.49,0S113,292.21,103.21,286.55Zm-9.59,15c-4.5,2.6-11.8,2.6-16.31,0s-4.5-6.82,0-9.42,11.81-2.6,16.31,0S98.13,298.9,93.62,301.51Z"/><path class="cls-11" d="M64,283.2l9,.14A9.77,9.77,0,0,1,75.8,281c4.92-2.84,12.66-3.06,18-.66l5.31-5,8.19.12c-.4-.26-.82-.52-1.25-.77-11.39-6.58-29.84-6.58-41.22,0a21.57,21.57,0,0,0-5.12,4Z"/><polygon class="cls-12" points="107.33 262.43 107.33 275.42 99.14 275.3 99.14 262.3 107.33 262.43"/><polygon class="cls-11" points="93.83 267.3 93.83 280.3 99.14 275.3 99.14 262.3 93.83 267.3"/><path class="cls-11" d="M73,270.34v13l11.78-9.6,9.08,6.56v-13l-8.36-4.05S74,266.77,73.36,266.92,73,270.34,73,270.34Z"/><polygon class="cls-11" points="64.02 270.2 64.02 283.2 72.97 283.34 72.97 270.34 64.02 270.2"/><polygon class="cls-12" points="59.74 265.64 59.74 278.63 64.02 283.2 64.02 270.2 59.74 265.64"/><path class="cls-12" d="M64,270.2l9,.14A9.77,9.77,0,0,1,75.8,268c4.92-2.84,12.66-3.06,18-.66l5.31-5,8.19.13c-.4-.27-.82-.53-1.25-.78-11.39-6.58-29.84-6.58-41.22,0a21.07,21.07,0,0,0-5.12,4Z"/><path class="cls-8" d="M96.52,268.9v12l7.75-1.86s-.45-7-.62-7.18S96.52,268.9,96.52,268.9Z"/><path class="cls-2" d="M90.66,280.85v13l.83.89L97,291.59s-.85-9.92-.95-10.12A51.68,51.68,0,0,0,90.66,280.85Z"/><path class="cls-3" d="M101.21,277.49l-4.69,4.41c3.9,3.09,3.44,7.44-1.39,10.22a16.5,16.5,0,0,1-4.47,1.73L95.5,299l-4.29,4a39,39,0,0,0,14.87-4.6c9.78-5.65,11.15-14.31,4.11-20.81Z"/><polygon class="cls-3" points="91.21 290.04 91.21 303.04 101.83 298.94 114.61 286.75 114.56 272.95 101.04 283.66 91.21 290.04"/><path class="cls-1" d="M101.21,264.49l-4.69,4.41c3.9,3.09,3.44,7.44-1.39,10.23a16.82,16.82,0,0,1-4.47,1.72L95.5,286l-4.29,4a39,39,0,0,0,14.87-4.6c9.78-5.65,11.15-14.31,4.11-20.81Z"/><path class="cls-3" d="M91.17,298.94l-4.26-4.55a20.38,20.38,0,0,1-11.11-2.27c-3.14-1.81-4.43-4.28-3.88-6.63l-10.16-.16-3.91-4.16c-3.42,5.86-1.09,12.6,7,17.27,6,3.44,13.82,5.07,21.62,4.92Z"/><polygon class="cls-3" points="86.48 290.36 86.48 303.36 56.33 286.65 56.33 273.64 60.73 275.42 86.48 290.36"/><polygon class="cls-2" points="91.17 285.94 91.17 298.94 86.48 303.36 86.48 290.36 91.17 285.94"/><path class="cls-8" d="M91.17,285.94l-4.26-4.55a20.46,20.46,0,0,1-11.11-2.26c-3.14-1.81-4.43-4.29-3.88-6.64l-10.16-.16-3.91-4.16c-3.42,5.86-1.09,12.6,7,17.27,6,3.44,13.82,5.07,21.62,4.92Z"/><path class="cls-8" d="M23.58,76.3a6.5,6.5,0,1,1,6.5-6.5A6.51,6.51,0,0,1,23.58,76.3Zm0-11a4.5,4.5,0,1,0,4.5,4.5A4.51,4.51,0,0,0,23.58,65.3Z"/><path class="cls-1" d="M249,9.35a5.63,5.63,0,1,1-5.63-5.62A5.62,5.62,0,0,1,249,9.35Z"/><path class="cls-11" d="M218.59,67.51,191.86,52.07a1.41,1.41,0,0,0-1.39-.11v0l-2.6,1.5,1.82.67V73.58a5.14,5.14,0,0,0,2.16,4.11l25.55,14.76v2.28L220,93.22h0a1.93,1.93,0,0,0,.73-1.72V71.62A5.17,5.17,0,0,0,218.59,67.51Z"/><path class="cls-12" d="M216,94.65,189.21,79.21a5.15,5.15,0,0,1-2.15-4.11V55.22c0-1.58,1-2.31,2.15-1.62L216,69a5.16,5.16,0,0,1,2.15,4.11V93C218.1,94.61,217.14,95.34,216,94.65Z"/><path class="cls-10" d="M198.21,72.36c0,1.15-.81,1.62-1.81,1a4,4,0,0,1-1.8-3.12c0-1.15.81-1.62,1.8-1A4,4,0,0,1,198.21,72.36Z"/><path class="cls-10" d="M203.67,75.52c0,1.15-.81,1.61-1.8,1a4,4,0,0,1-1.81-3.13c0-1.15.81-1.61,1.81-1A4,4,0,0,1,203.67,75.52Z"/><path class="cls-10" d="M209.14,78.67c0,1.15-.81,1.62-1.81,1a4,4,0,0,1-1.8-3.13c0-1.15.81-1.62,1.8-1A4,4,0,0,1,209.14,78.67Z"/><path class="cls-8" d="M88.58,37.14,62.35,22A1.33,1.33,0,0,0,61,21.89v0l-2.55,1.47,1.79.65V43.1a5,5,0,0,0,2.11,4L87.42,61.6v2.25L90,62.36h0a1.88,1.88,0,0,0,.71-1.68V41.17A5,5,0,0,0,88.58,37.14Z"/><path class="cls-1" d="M86,63.77,59.76,48.62a5,5,0,0,1-2.11-4V25.08c0-1.55.94-2.26,2.11-1.59L86,38.63a5.06,5.06,0,0,1,2.11,4v19.5C88.1,63.73,87.16,64.44,86,63.77Z"/><path class="cls-10" d="M68.58,41.9c0,1.13-.79,1.59-1.77,1A3.89,3.89,0,0,1,65,39.86c0-1.13.79-1.59,1.77-1A3.89,3.89,0,0,1,68.58,41.9Z"/><path class="cls-10" d="M73.94,45c0,1.12-.79,1.58-1.77,1A3.92,3.92,0,0,1,70.4,43c0-1.13.79-1.58,1.77-1A3.9,3.9,0,0,1,73.94,45Z"/><path class="cls-10" d="M79.3,48.09c0,1.13-.79,1.59-1.77,1a3.91,3.91,0,0,1-1.77-3.06c0-1.13.8-1.59,1.77-1A3.89,3.89,0,0,1,79.3,48.09Z"/></svg>