<svg xmlns="http://www.w3.org/2000/svg" xmlns:xlink="http://www.w3.org/1999/xlink" width="312.5" height="92" viewBox="0 0 312.5 92"><defs><style>.a{fill:rgba(43,41,45,0.6);font-size:20px;font-family:WorkSans-Bold, Work Sans;font-weight:700;}.b,.c{font-family:WorkSans-Regular, Work Sans;font-weight:400;}.c{font-size:18px;}.d{fill:#fff;}.e{fill:url(#c);}.f{filter:url(#a);}</style><filter id="a" x="0" y="0" width="92" height="92" filterUnits="userSpaceOnUse"><feOffset dy="3" input="SourceAlpha"/><feGaussianBlur stdDeviation="5" result="b"/><feFlood flood-opacity="0.078"/><feComposite operator="in" in2="b"/><feComposite in="SourceGraphic"/></filter><linearGradient id="c" x1="0.085" x2="1" y2="1" gradientUnits="objectBoundingBox"><stop offset="0" stop-color="#3142c6"/><stop offset="1" stop-color="#af61d1"/></linearGradient></defs><g transform="translate(2392 -6209)"><text class="a" transform="translate(-2301.5 6248)"><tspan x="0" y="0">Foundation</tspan><tspan class="b" y="0"></tspan><tspan class="c"><tspan x="0" y="25">Startup landing template</tspan></tspan></text><g class="f" transform="matrix(1, 0, 0, 1, -2392, 6209)"><rect class="d" width="62" height="62" rx="14" transform="translate(15 12)"/></g><path class="e" d="M29.829,40.451H23.481a1.268,1.268,0,0,1-1.27-1.264V26.546a5.073,5.073,0,0,0-5.078-5.056H15.867a5.073,5.073,0,0,0-5.079,5.056V39.188a1.268,1.268,0,0,1-1.267,1.264H3.173A1.268,1.268,0,0,1,1.9,39.188V20.226a1.268,1.268,0,0,1,1.27-1.264A7.618,7.618,0,0,1,9.52,22.351a7.616,7.616,0,0,1,6.347-3.389h1.266a7.615,7.615,0,0,1,6.348,3.39,7.616,7.616,0,0,1,6.348-3.39A1.268,1.268,0,0,1,31.1,20.226V39.188A1.268,1.268,0,0,1,29.829,40.451Zm-1.27-6.125-3.809,2.95v.646h3.809Zm-24.116,0v3.6H8.251v-.644Zm0-6.321V31.14a1.366,1.366,0,0,1,.145.1l3.664,2.839V30.958Zm24.116,0L24.75,30.957v3.118l3.663-2.838a1.242,1.242,0,0,1,.146-.1ZM4.442,21.646v3.173a1.366,1.366,0,0,1,.145.1l3.664,2.839V26.546A5.055,5.055,0,0,0,4.442,21.646Zm24.116-.03a5.262,5.262,0,0,0-1.308.572,5.077,5.077,0,0,0-2.5,4.358v1.208l3.663-2.838a1.37,1.37,0,0,1,.146-.1Zm-5.078-1.983h0a7.638,7.638,0,0,0-5.712-2.567H15.233A7.636,7.636,0,0,0,9.52,19.633a7.638,7.638,0,0,0-5.712-2.567V15.8a.637.637,0,0,1,.64-.632h24.1a.637.637,0,0,1,.64.632v1.264a7.64,7.64,0,0,0-5.711,2.567Zm8.249-6.36H1.269A1.268,1.268,0,0,1,0,12.009V1.265A1.268,1.268,0,0,1,1.269,0H6.98A1.269,1.269,0,0,1,8.25,1.265V5.056h3.173V1.265A1.269,1.269,0,0,1,12.693,0h7.615a1.268,1.268,0,0,1,1.269,1.265V5.056H24.75V1.265A1.268,1.268,0,0,1,26.019,0H31.73A1.269,1.269,0,0,1,33,1.265V12.009A1.269,1.269,0,0,1,31.73,13.273Z" transform="translate(-2362 6232)"/></g></svg>